PathFileType	4	(X/Y/Z)	c:/Users/goper/Files/vsCode/490R/osim_files/C11/C11_SSWS_04.trc
DataRate	CameraRate	NumFrames	NumMarkers	Units                	OrigDataRate	OrigDataStartFrame	OrigNumFrames
120.00	120.00	9	36	mm	120.0	725	1159
                Frame#	Time	LPSI			LASI			LTH1			LTH2			LTH3			LTH4			LLFE			LMFE			LSH1			LSH2			LSH3			LSH4			LLMA			LMMA			LCAL			LMTP			LTOE			LMTP			RPSI			RASI			RTH1			RTH2			RTH3			RTH4			RLFE			RMFE			RSH1			RSH2			RSH3			RSH4			RLMA			RMMA			RCAL			RMTP			RTOE			RMTP		
		X1	Y1	Z1	X2	Y2	Z2	X3	Y3	Z3	X4	Y4	Z4	X5	Y5	Z5	X6	Y6	Z6	X7	Y7	Z7	X8	Y8	Z8	X9	Y9	Z9	X10	Y10	Z10	X11	Y11	Z11	X12	Y12	Z12	X13	Y13	Z13	X14	Y14	Z14	X15	Y15	Z15	X16	Y16	Z16	X17	Y17	Z17	X18	Y18	Z18	X19	Y19	Z19	X20	Y20	Z20	X21	Y21	Z21	X22	Y22	Z22	X23	Y23	Z23	X24	Y24	Z24	X25	Y25	Z25	X26	Y26	Z26	X27	Y27	Z27	X28	Y28	Z28	X29	Y29	Z29	X30	Y30	Z30	X31	Y31	Z31	X32	Y32	Z32	X33	Y33	Z33	X34	Y34	Z34	X35	Y35	Z35	X36	Y36	Z36

725	6.03333	-1732.95837	1001.31152	301.57642	-1907.77734	1012.64069	374.15317	-1822.21692	615.81921	403.79123	-1829.35767	568.91663	399.99484	-1881.09863	617.43237	417.26678	-1880.89368	571.37933	409.27951	-1854.81787	500.43277	400.24365	-1908.73132	528.90894	290.95691	-1795.37451	398.45660	400.21497	-1792.02124	354.81766	397.20358	-1856.73010	387.72421	406.62048	-1844.41113	344.73361	401.83594	-1786.87708	94.18740	321.55228	-1826.68835	114.38979	235.92430	-1731.67407	60.81692	262.09927	-1897.14404	41.26847	359.19351	-1972.98804	59.94543	296.23276	-1936.55945	46.94571	247.65112	-1737.07935	1010.19031	218.53085	-1903.50500	993.20441	144.34259	-1983.92188	654.84790	98.86945	-2007.75696	618.31403	105.94419	-2041.42419	682.48749	111.16761	-2056.23022	642.10187	115.51562	-2057.48657	554.10382	126.97443	-2036.56738	535.18805	237.51740	-1968.54065	483.37622	107.01305	-1952.56555	440.79562	104.42451	-2024.06067	453.93320	111.35544	-2001.17419	414.74390	106.54585	-1847.13220	189.71062	124.47817	-1874.46741	183.82387	216.86552	-1774.10645	185.08026	176.32767	-1958.45947	74.81423	196.97514	-1968.56555	86.23917	147.48694	-1920.02136	82.06484	88.15816
726	6.04167	-1741.65784	1001.34357	300.86417	-1916.06714	1012.41766	374.39920	-1825.29883	616.43805	403.97809	-1831.97681	569.40210	400.42123	-1884.07178	617.35187	417.79965	-1883.39282	571.29205	410.04227	-1856.48096	500.29608	400.99292	-1910.17065	528.31555	290.74484	-1796.30762	398.39612	400.89557	-1793.03162	354.77844	397.90842	-1857.78564	387.41266	407.29980	-1845.29370	344.46445	402.40869	-1786.90808	94.11602	321.59094	-1829.24646	115.62643	236.92065	-1731.92542	60.73648	262.19662	-1896.88110	41.02351	359.14505	-1973.32056	60.09860	296.05740	-1935.26099	45.74992	246.91074	-1746.02344	1010.25159	217.96985	-1912.76990	993.46960	144.52695	-1995.11865	656.46484	98.52124	-2019.21899	620.09277	105.56096	-2052.35547	684.47314	111.44092	-2067.49341	644.22253	115.77390	-2069.62500	556.00684	126.83773	-2048.15967	536.26007	237.29085	-1983.40161	480.75363	105.79510	-1969.89172	437.45053	103.38350	-2040.44336	454.48944	110.95789	-2018.82983	413.69144	106.13609	-1876.60669	181.20589	123.90398	-1903.36414	177.09750	216.44144	-1803.52026	173.00932	175.01582	-1993.49109	72.67599	197.93372	-2003.16089	84.39605	148.45630	-1955.32532	77.48172	88.58636
727	6.05000	-1750.09045	1001.30255	300.13037	-1924.27344	1011.91064	374.60406	-1828.49048	616.95789	404.20209	-1834.63525	569.81213	400.88528	-1887.18433	617.13428	418.34525	-1885.99622	571.13177	410.84824	-1858.18359	500.01849	401.73022	-1911.60327	527.64771	290.52066	-1797.81067	398.31314	401.62442	-1794.09119	354.68707	398.49374	-1858.98169	387.10101	407.96848	-1846.20496	344.14078	403.08664	-1786.84375	94.03418	321.64703	-1831.90259	116.84528	238.01430	-1731.91565	60.68155	262.23114	-1896.76843	40.90543	359.26776	-1973.23730	59.98597	296.11890	-1936.73828	46.83193	247.23689	-1754.85046	1010.14734	217.31223	-1921.82312	993.31763	144.74667	-2005.86121	657.48169	98.22764	-2030.21399	621.34033	105.26334	-2062.78662	685.89917	111.67035	-2078.05298	645.67139	115.95750	-2081.26636	557.51337	126.85496	-2059.25244	536.66223	237.00742	-1998.53809	477.64795	104.51652	-1987.10706	433.70776	102.16807	-2056.42261	454.13928	111.02831	-2037.15259	412.25443	106.10368	-1906.64746	172.73468	123.50607	-1932.49829	170.36386	216.27281	-1833.69641	160.73228	173.81287	-2027.98987	70.73197	199.06659	-2037.78003	82.88289	149.74245	-1991.07776	73.24421	89.32415
728	6.05833	-1758.62109	1001.11981	299.39648	-1932.61365	1011.24658	374.75934	-1831.97424	617.43237	404.51358	-1837.52747	570.20874	401.40622	-1890.55530	616.93945	418.89374	-1888.92041	570.92462	411.53613	-1860.18066	499.74515	402.38354	-1913.05298	526.90668	290.28568	-1798.95288	398.25522	402.13412	-1795.18311	354.68964	399.07281	-1860.19885	386.69299	408.67398	-1847.27136	343.78522	403.62308	-1786.87744	93.99911	321.73767	-1834.66162	118.04612	239.20091	-1731.93921	60.68355	262.28397	-1896.76367	40.79149	359.40057	-1973.31262	59.85123	296.18393	-1936.93481	46.92786	247.36040	-1763.70129	1010.02362	216.64844	-1931.09167	993.00128	144.79982	-2016.13464	658.01672	97.95683	-2040.50049	621.99847	105.00899	-2072.39014	687.26208	112.74382	-2088.35449	646.53375	116.02010	-2092.40674	558.42902	126.85138	-2069.96631	536.67242	237.00204	-2013.43335	474.19333	103.16684	-2003.69165	429.85898	101.04498	-2072.14111	453.51172	111.02974	-2055.16211	410.64337	106.20588	-1937.07544	164.53036	123.20625	-1961.35999	163.51263	215.93990	-1864.17664	149.29657	172.55869	-2062.80542	69.21748	200.55379	-2072.61548	81.77171	151.30986	-2026.86865	69.45245	90.43863
729	6.06667	-1767.36670	1000.78656	298.60605	-1941.05518	1010.41412	374.82373	-1835.21240	617.93915	404.91391	-1840.71558	570.62488	401.92938	-1894.22327	616.66479	419.39902	-1892.16125	570.69086	412.14313	-1862.44312	499.57318	403.02643	-1914.54382	526.09393	290.04123	-1800.64893	398.40460	402.59058	-1796.33289	354.80457	399.37878	-1861.75952	386.31909	409.25049	-1848.36279	343.63019	404.11816	-1786.95947	94.02480	321.79559	-1837.52869	119.22869	240.47612	-1731.98315	60.76554	262.31696	-1896.84961	40.70286	359.50766	-1973.31873	59.72905	296.21066	-1936.76318	46.71547	247.24809	-1772.62561	1009.69922	215.92831	-1940.26843	992.36133	144.82004	-2025.88843	657.95923	97.73020	-2050.43188	622.09082	104.88785	-2081.95117	687.46558	112.88425	-2098.14624	646.80872	116.18059	-2103.05713	558.82739	127.02828	-2079.95947	536.30481	236.65872	-2028.13904	470.44348	101.94208	-2020.96765	425.61664	99.72192	-2088.00391	452.68698	110.92645	-2072.74658	408.96048	106.28529	-1967.75916	156.56487	123.06127	-1990.38550	157.66998	215.84541	-1895.49597	137.55446	171.79535	-2097.42041	68.13757	201.12923	-2106.80835	81.07986	153.09837	-2062.98560	66.08706	91.70528
730	6.07500	-1775.94653	1000.37732	297.83499	-1949.54529	1009.47638	374.89734	-1839.07275	618.30090	405.23648	-1843.87891	570.91809	402.42554	-1897.97461	616.43085	419.82321	-1895.38452	570.45184	412.75024	-1864.59717	499.31683	403.53729	-1916.09937	525.21094	289.78864	-1801.91455	398.61801	402.75858	-1797.37671	355.02487	399.51260	-1862.31506	386.14307	409.35553	-1849.43115	343.50021	404.52335	-1786.89929	94.06606	321.79669	-1840.50940	120.39276	241.83560	-1731.92664	60.85459	262.26215	-1896.81799	40.64497	359.55878	-1973.30334	59.65032	296.25238	-1936.80725	46.75191	247.29253	-1781.60120	1009.19537	215.19118	-1949.54846	991.45935	144.77379	-2036.88013	656.38824	98.75071	-2059.72583	621.53442	104.75420	-2091.11914	687.03601	112.99101	-2107.45093	646.44238	116.23761	-2113.21997	558.65045	127.22711	-2089.37549	535.21906	236.37820	-2042.30920	466.31693	100.90532	-2037.40723	421.21487	98.78386	-2102.95117	451.42703	110.74892	-2089.97778	407.11444	106.53265	-1998.77478	148.87622	123.18903	-2019.62402	153.05820	216.11394	-1926.82141	126.50706	171.31053	-2131.83545	67.76737	202.80872	-2140.99487	81.20956	154.66908	-2098.87915	63.51195	93.40198
731	6.08333	-1784.77576	999.67780	297.16196	-1958.09814	1008.44360	375.00815	-1842.97876	618.55481	405.60336	-1847.27246	571.07526	402.94522	-1901.87744	616.03412	420.14844	-1898.89197	570.07031	413.22485	-1867.05591	499.05057	404.03580	-1917.74341	524.25903	289.52924	-1803.34009	398.73666	402.79517	-1798.57886	355.15778	399.62997	-1863.68848	385.87656	409.75934	-1850.44495	343.34341	404.81412	-1786.97607	94.03643	321.78931	-1843.60840	121.53809	243.27501	-1731.96008	60.88621	262.23553	-1896.86694	40.51042	359.66431	-1973.30542	59.50436	296.29282	-1936.84473	46.71964	247.28133	-1790.55298	1008.50305	214.43921	-1958.82556	990.34729	144.85852	-2045.64844	655.17377	98.66576	-2068.53394	620.34546	104.74774	-2099.79321	685.90112	113.11028	-2116.48730	645.29779	116.12227	-2122.69434	557.74847	127.39324	-2098.76318	533.69366	236.52188	-2056.01099	461.87555	100.11820	-2053.47681	416.52173	98.03033	-2116.88379	450.00998	111.79277	-2106.51392	404.96133	106.66984	-2030.04419	141.58615	123.42402	-2048.95435	149.56201	216.72166	-1958.92505	115.67273	170.90858	-2166.38989	68.31277	204.82764	-2175.20630	81.82073	156.80084	-2134.77905	61.41454	95.19899
732	6.09167	-1793.60510	998.98553	296.35910	-1966.80408	1007.26367	375.08167	-1847.16406	618.78668	405.96927	-1850.82007	571.31342	403.39359	-1906.11548	615.61597	420.44296	-1902.52795	569.71088	413.64816	-1869.56311	498.82715	404.51779	-1919.50000	523.23956	289.26437	-1804.87537	398.93460	402.79221	-1799.71448	355.39798	399.64719	-1865.10999	385.62088	410.07755	-1851.61914	343.15436	405.16260	-1787.05774	94.05467	321.75687	-1846.83142	122.66444	244.79002	-1732.04761	60.91313	262.18817	-1896.98499	40.43438	359.78464	-1972.87781	59.54082	296.13318	-1936.61816	46.64328	247.17503	-1800.09546	1007.45807	213.84462	-1968.24304	988.94690	144.84761	-2053.86719	653.42010	98.67931	-2076.91724	618.55334	104.77728	-2107.98267	684.14337	113.15952	-2124.35059	643.53033	116.32753	-2131.63135	556.30035	127.49770	-2107.67847	531.70831	236.59810	-2069.28979	456.91153	99.52219	-2069.12402	411.51117	97.46158	-2130.45093	448.25781	111.90400	-2122.57715	402.66830	106.86558	-2061.43848	134.88132	123.97783	-2078.25464	147.06622	217.64478	-1991.15588	105.89657	170.96227	-2200.83228	69.51463	206.89722	-2209.65063	83.09824	159.39337	-2171.01367	60.15651	97.32352
733	6.10000	-1802.60034	998.11041	295.65488	-1975.30603	1005.87830	375.15439	-1851.37622	618.96021	406.26163	-1854.51624	571.43256	403.77371	-1910.25916	615.07806	420.65161	-1906.16272	569.29059	413.94736	-1872.08350	498.51462	404.91107	-1921.39233	522.15405	288.99530	-1806.43420	399.15558	402.80719	-1800.97302	355.60202	399.58469	-1866.53027	385.38513	410.47818	-1852.68408	343.00894	405.47482	-1787.09912	94.07271	321.72333	-1850.18335	123.77159	246.37631	-1732.07153	60.94978	262.16852	-1896.37219	40.27628	359.49915	-1972.87854	59.40271	296.20563	-1936.64856	46.58074	247.23517	-1809.17969	1006.33685	213.09198	-1977.73071	987.34143	144.71736	-2061.58984	651.11517	98.90668	-2084.50220	616.21716	104.94950	-2115.77930	681.69647	113.13485	-2132.07373	641.14545	116.37377	-2139.99756	554.28760	127.43718	-2115.91992	528.91455	236.46848	-2082.02905	451.44711	99.01669	-2083.42896	406.39255	97.00253	-2143.96045	446.35410	111.95892	-2138.99609	400.07339	107.13074	-2093.28369	128.82587	124.71935	-2107.40381	145.45555	218.85950	-2024.01794	96.59287	171.43637	-2237.64014	74.49430	210.67926	-2243.76392	85.27563	161.96255	-2206.19775	60.01729	99.54615
